# xmcd
#
# Track frame offsets:
#	150
#	15127
#	28569
#	58744
#	81979
#	119288
#	142724
#	180490
#	196309
#	225086
#	240119
#	262611
#	301052
#
# Disc length: 4179 seconds
#
# Revision: 5
# Processed by: cddbd v1.5.2PL0 Copyright (c) Steve Scherf et al.
# Submitted via: EZCDAudioConverter 1.3.4.1
#
DISCID=8210510d
DTITLE=Various Artist - Love's A Real Thing
DYEAR=2004
DGENRE=
TTITLE0=Orchestre Poly-Rythmo De Cotonou Dahomey - Minsato Le, Mi Dayihome
TTITLE1=Super Eagles - Love's A Real Thing
TTITLE2=Moussa Doumbia - Keleya
TTITLE3=Manu Dibango - Ceddo End Title
TTITLE4=Sorry Bamba - Porry
TTITLE5=No. 1 De No. 1 - Guajira Van
TTITLE6=William Onyeabor - Better Change Your Mind
TTITLE7=Ofo and The Black Company - Allah Wakbarr
TTITLE8=Gasper Lawal - Awon-Ojise-Oluwa
TTITLE9=Bunzu Sounds - Zinabu
TTITLE10=Tunji Oyelana and The Benders - Ifa
TTITLE11=Orchestre Regional De Kayes - Sanjina
TTITLE12=Various Artist - Data
EXTD=
EXTT0=
EXTT1=
EXTT2=
EXTT3=
EXTT4=
EXTT5=
EXTT6=
EXTT7=
EXTT8=
EXTT9=
EXTT10=
EXTT11=
EXTT12=
PLAYORDER=
